# xmcd CD database file
#
# Track frame offsets:
#	150
#	24975
#	49800
#
# Disc length: 837 seconds
#
# Revision: 0
# Processed by: cddbd v1.5.1PL0 Copyright (c) Steve Scherf et al.
# Submitted via: CDex 1.50beta8
#
DISCID=1b034303
DTITLE=松本英子 - 今年の冬
DYEAR=2003
DGENRE=Girl-POP
TTITLE0=今年の冬
TTITLE1=今年の冬(カラオケ)
TTITLE2=夢見るシャンソン人形
EXTD=YEAR: 2003
EXTT0=
EXTT1=
EXTT2=
PLAYORDER=
